<?xml version="1.0" encoding="iso-8859-1"?>
<!-- Generator: Adobe Illustrator 18.0.0, SVG Export Plug-In . SVG Version: 6.00 Build 0)  -->
<!DOCTYPE svg PUBLIC "-//W3C//DTD SVG 1.1//EN" "http://www.w3.org/Graphics/SVG/1.1/DTD/svg11.dtd">
<svg version="1.1" id="Capa_1" xmlns="http://www.w3.org/2000/svg" xmlns:xlink="http://www.w3.org/1999/xlink" x="0px" y="0px"
	 viewBox="0 0 223.165 223.165" style="enable-background:new 0 0 223.165 223.165;" xml:space="preserve">
<g>
	<path d="M15.072,62.407c0.336,2.493,1.898,4.651,4.161,5.748c2.265,1.097,4.925,0.986,7.091-0.294
		c2.778-1.645,4.483-1.89,5.252-1.89c0.686,0,1.296,0.155,2.037,0.912c1.785,1.826,3.072,5.922,2.991,9.617
		c-0.093,9.316-1.31,15.145-2.597,21.315c-1.352,6.476-2.749,13.172-2.958,23.668c-0.001,0.05-0.002,0.1-0.002,0.149
		c0,36.057,27.598,60.974,69.502,63.797v22.734h-9.836c-4.143,0-7.5,3.357-7.5,7.5c0,4.143,3.357,7.5,7.5,7.5h34.674
		c4.143,0,7.5-3.357,7.5-7.5c0-4.143-3.357-7.5-7.5-7.5h-9.838v-22.697c46.121-2.877,66.219-33.998,74.003-46.073
		c6.362-9.868,8.146-16.048,6.159-21.329c-0.239-0.635-0.52-1.218-0.837-1.755c4.976-5.741,6.583-11.288,4.779-16.557
		c-0.774-2.262-2.174-4.229-4.048-5.812c16.945-20.148,12.329-32.895,11.076-35.503c-0.976-2.029-2.812-3.514-5-4.042
		c-2.187-0.523-4.498-0.045-6.293,1.315c-27.44,20.816-50.602,31.372-68.842,31.372c-22.31,0-29.964-16.567-32.219-23.691
		c-5.152-16.268-10.426-26.685-13.526-32.037c3.377-6.875,2.261-12.193,0.487-15.655c-3.149-6.147-9.93-9.21-15.435-9.652
		C62.432,2.154,58.014,0,53.223,0c-5.47,0-10.537,2.838-13.636,7.249c-9.609,0.606-13.084,6.451-14.156,9.042
		c-1.979,4.778-1.227,10.144,0.88,14.59c-1.833,3.309-2.9,7.343-3.151,11.217C13.9,51.265,14.91,61.21,15.072,62.407z
		 M35.336,51.322c1.982-1.574,3.037-4.041,2.805-6.562c-0.296-3.202,0.854-6.083,1.483-6.971c1.835-1.138,3.102-3.02,3.451-5.172
		c0.386-2.381-0.396-4.802-2.101-6.507c-0.972-0.971-1.624-2.743-1.686-3.717c0.356-0.093,0.974-0.196,1.949-0.196
		c0.637,0,1.347,0.045,2.109,0.135c3.779,0.444,7.297-2.014,8.175-5.72C51.735,15.72,52.626,15,53.223,15
		c0.52,0,1.515,0.809,2.473,2.582c1.075,1.992,2.993,3.392,5.218,3.809c1.371,0.258,2.766,0.124,4.039-0.357
		c1.149,0.181,2.689,0.927,2.987,1.508c0.079,0.155,0.045,1.648-2.021,4.519c-1.883,2.616-1.862,6.172,0.02,8.789
		c0.07,0.098,7.107,10.023,14.09,32.072c6.772,21.392,24.163,34.163,46.519,34.163c17.524,0,38.099-7.633,61.327-22.724
		c-2.386,3.514-5.827,7.631-10.776,12.333c-2.238,2.127-2.944,5.407-1.78,8.267c1.151,2.827,3.899,4.671,6.945,4.671
		c0.035,0,0.069,0,0.104-0.001l0.131-0.001c0.914,0,1.686,0.125,2.27,0.28c-0.767,1.192-2.507,3.299-6.402,6.32
		c-2.233,1.731-3.304,4.572-2.769,7.347c0.53,2.748,2.545,4.969,5.223,5.767c-0.593,1.384-1.722,3.583-3.875,6.923
		c-7.607,11.802-25.423,39.438-68.329,39.438c-37.979,0-62.529-19.229-62.568-48.998c0.187-9.054,1.38-14.773,2.644-20.827
		c1.379-6.607,2.805-13.44,2.911-24.139c0.135-6.107-1.704-14.659-7.267-20.347c-2.563-2.619-5.64-4.327-9.037-5.042
		C35.311,51.343,35.323,51.333,35.336,51.322z"/>
	<path d="M53.906,49.758c3.394,0,6.154-2.744,6.154-6.117c0-3.393-2.761-6.155-6.154-6.155c-3.398,0-6.164,2.762-6.164,6.155
		C47.742,47.014,50.508,49.758,53.906,49.758z"/>
</g>
<g>
</g>
<g>
</g>
<g>
</g>
<g>
</g>
<g>
</g>
<g>
</g>
<g>
</g>
<g>
</g>
<g>
</g>
<g>
</g>
<g>
</g>
<g>
</g>
<g>
</g>
<g>
</g>
<g>
</g>
</svg>
