<?xml version="1.0" encoding="UTF-8" standalone="no"?>
<!DOCTYPE svg PUBLIC "-//W3C//DTD SVG 1.1//EN" "http://www.w3.org/Graphics/SVG/1.1/DTD/svg11.dtd">
<svg width="100%" height="100%" viewBox="0 0 512 512" version="1.1" xmlns="http://www.w3.org/2000/svg" xmlns:xlink="http://www.w3.org/1999/xlink" xml:space="preserve" xmlns:serif="http://www.serif.com/" style="fill-rule:evenodd;clip-rule:evenodd;stroke-linejoin:round;stroke-miterlimit:2;">
    <g>
        <path d="M487.028,142.964C497.818,170.755 503.742,200.979 503.742,232.58C503.742,369.411 392.82,480.322 256,480.322C119.18,480.322 8.258,369.411 8.258,232.58C8.258,200.957 14.182,170.733 24.994,142.931C33.385,151.001 43.889,155.813 55.318,155.813C71.79,155.813 86.39,145.804 95.463,130.488C104.547,145.804 119.125,155.813 135.597,155.813C152.07,155.813 166.637,145.804 175.743,130.488C184.826,145.804 199.394,155.813 215.866,155.813C232.338,155.813 246.938,145.804 256.011,130.488C265.095,145.804 279.662,155.813 296.145,155.813C312.617,155.813 327.185,145.804 336.29,130.488C345.374,145.804 359.93,155.813 376.403,155.813C392.886,155.813 407.486,145.804 416.559,130.488C425.632,145.804 440.21,155.813 456.682,155.813C468.1,155.813 478.626,151.001 487.028,142.964Z" style="fill:rgb(139,184,232);fill-rule:nonzero;"/>
        <path d="M456.678,147.554C443.704,147.554 431.672,139.8 423.668,126.28C422.181,123.77 419.48,122.229 416.562,122.229C413.644,122.229 410.942,123.769 409.456,126.281C401.452,139.8 389.406,147.554 376.405,147.554C363.443,147.554 351.41,139.798 343.392,126.276C341.905,123.769 339.207,122.23 336.293,122.229C333.376,122.229 330.676,123.766 329.19,126.271C321.157,139.797 309.114,147.554 296.145,147.554C283.175,147.554 271.136,139.798 263.118,126.276C261.631,123.767 258.931,122.229 256.015,122.229C253.096,122.23 250.396,123.77 248.909,126.28C240.904,139.8 228.863,147.554 215.871,147.554C202.901,147.554 190.863,139.798 182.845,126.276C181.357,123.769 178.659,122.23 175.745,122.229C172.828,122.229 170.128,123.766 168.642,126.271C160.609,139.797 148.566,147.554 135.599,147.554C122.628,147.554 110.59,139.798 102.572,126.276C101.084,123.767 98.384,122.229 95.469,122.229C92.55,122.23 89.849,123.77 88.362,126.28C80.358,139.8 68.316,147.554 55.325,147.554C50.763,147.554 47.067,151.25 47.067,155.812C47.067,160.374 50.763,164.07 55.325,164.07C70.373,164.07 84.755,156.954 95.472,144.585C106.194,156.954 120.569,164.07 135.599,164.07C150.626,164.07 165.006,156.951 175.737,144.578C186.46,156.952 200.837,164.07 215.871,164.07C230.92,164.07 245.302,156.954 256.019,144.585C266.741,156.954 281.116,164.07 296.145,164.07C311.174,164.07 325.553,156.952 336.285,144.578C347.006,156.952 361.378,164.07 376.406,164.07C391.461,164.07 405.844,156.956 416.562,144.59C427.276,156.956 441.646,164.07 456.68,164.07C461.242,164.07 464.938,160.374 464.938,155.812C464.938,151.25 461.238,147.554 456.678,147.554Z" style="fill:rgb(59,111,182);fill-rule:nonzero;"/>
        <path d="M512,232.583C512,191.387 501.977,150.439 483.016,114.168C464.669,79.075 437.967,48.234 405.795,24.981C404.388,23.963 402.694,23.415 400.957,23.415L111.043,23.415C109.307,23.415 107.614,23.963 106.205,24.981C74.033,48.234 47.331,79.075 28.984,114.168C10.023,150.44 0,191.387 0,232.583C0,300.965 26.63,365.251 74.981,413.602C102.368,440.989 134.87,461.399 170.329,473.956C168.495,475.47 167.327,477.761 167.327,480.325C167.327,484.887 171.023,488.583 175.585,488.583L336.415,488.583C340.977,488.583 344.673,484.887 344.673,480.325C344.673,477.761 343.505,475.471 341.671,473.956C377.13,461.399 409.632,440.989 437.019,413.602C485.37,365.252 512,300.965 512,232.583ZM256,472.067C123.948,472.067 16.516,364.635 16.516,232.583C16.516,156.825 52.813,85.011 113.74,39.932L398.26,39.932C459.187,85.011 495.484,156.826 495.484,232.583C495.484,364.635 388.052,472.067 256,472.067Z" style="fill:rgb(59,111,182);fill-rule:nonzero;"/>
    </g>
</svg>
