<?xml version="1.0" encoding="UTF-8" standalone="no"?>
<!DOCTYPE svg PUBLIC "-//W3C//DTD SVG 1.1//EN" "http://www.w3.org/Graphics/SVG/1.1/DTD/svg11.dtd">
<svg width="100%" height="100%" viewBox="0 0 512 512" version="1.1" xmlns="http://www.w3.org/2000/svg" xmlns:xlink="http://www.w3.org/1999/xlink" xml:space="preserve" xmlns:serif="http://www.serif.com/" style="fill-rule:evenodd;clip-rule:evenodd;stroke-linejoin:round;stroke-miterlimit:2;">
    <g>
        <path d="M201.267,92.619C175.731,92.619 154.956,71.845 154.956,46.309C154.956,20.773 175.732,0 201.267,0C226.803,0 247.577,20.774 247.577,46.31C247.577,71.846 226.803,92.619 201.267,92.619ZM201.267,27.461C190.873,27.461 182.417,35.916 182.417,46.31C182.417,56.704 190.874,65.159 201.267,65.159C211.66,65.159 220.116,56.704 220.116,46.31C220.116,35.916 211.661,27.461 201.267,27.461Z" style="fill:rgb(59,111,182);fill-rule:nonzero;"/>
        <path d="M290.81,512L80.924,512C50.672,512 26.06,487.388 26.06,457.136L26.06,240.367C26.06,143.756 104.658,65.158 201.269,65.158C208.852,65.158 214.999,71.305 214.999,78.888C214.999,86.471 208.852,92.618 201.269,92.618C119.801,92.618 53.521,158.897 53.521,240.366L53.521,457.135C53.521,472.245 65.814,484.538 80.924,484.538L290.81,484.538C298.392,484.538 304.54,490.685 304.54,498.268C304.54,505.851 298.392,512 290.81,512Z" style="fill:rgb(59,111,182);fill-rule:nonzero;"/>
        <path d="M362.747,498.268C355.165,498.268 349.017,492.121 349.017,484.538L349.017,368.488C349.017,360.905 355.165,354.758 362.747,354.758C370.329,354.758 376.477,360.905 376.477,368.488L376.477,484.538C376.478,492.121 370.329,498.268 362.747,498.268Z" style="fill:rgb(59,111,182);fill-rule:nonzero;"/>
    </g>
    <path d="M362.738,239.689C362.371,150.821 290.224,78.89 201.268,78.89C112.313,78.89 40.165,150.82 39.798,239.689L362.738,239.689Z" style="fill:rgb(139,184,232);fill-rule:nonzero;"/>
    <g>
        <path d="M362.738,253.418L39.799,253.418C36.148,253.418 32.647,251.964 30.071,249.377C27.495,246.79 26.055,243.283 26.069,239.631C26.261,192.985 44.571,149.162 77.622,116.235C110.686,83.297 154.597,65.158 201.268,65.158C247.939,65.158 291.851,83.297 324.914,116.235C357.967,149.162 376.276,192.985 376.469,239.631C376.484,243.282 375.044,246.789 372.468,249.377C369.89,251.964 366.388,253.418 362.738,253.418ZM54.225,225.957L348.31,225.957C341.027,151.272 277.747,92.619 201.268,92.619C124.789,92.619 61.508,151.274 54.225,225.957Z" style="fill:rgb(59,111,182);fill-rule:nonzero;"/>
        <path d="M110.953,510.694C103.37,510.694 97.223,504.547 97.223,496.964L97.223,239.688C97.223,232.105 103.37,225.958 110.953,225.958C118.536,225.958 124.683,232.105 124.683,239.688L124.683,496.963C124.684,504.547 118.537,510.694 110.953,510.694Z" style="fill:rgb(59,111,182);fill-rule:nonzero;"/>
        <path d="M201.267,510.694C193.684,510.694 187.537,504.547 187.537,496.964L187.537,369.828C187.537,362.245 193.684,356.098 201.267,356.098C208.85,356.098 214.997,362.245 214.997,369.828L214.997,496.964C214.998,504.547 208.851,510.694 201.267,510.694Z" style="fill:rgb(59,111,182);fill-rule:nonzero;"/>
        <path d="M291.581,510.694C283.999,510.694 277.851,504.547 277.851,496.964L277.851,369.828C277.851,362.245 283.999,356.098 291.581,356.098C299.163,356.098 305.311,362.245 305.311,369.828L305.311,496.964C305.312,504.547 299.163,510.694 291.581,510.694Z" style="fill:rgb(59,111,182);fill-rule:nonzero;"/>
        <path d="M291.581,382.218L110.953,382.218C103.37,382.218 97.223,376.071 97.223,368.488L97.223,239.688C97.223,232.105 103.37,225.958 110.953,225.958L291.58,225.958C299.162,225.958 305.31,232.105 305.31,239.688C305.31,247.271 299.162,253.418 291.58,253.418L124.684,253.418L124.684,354.757L291.58,354.757C299.162,354.757 305.31,360.904 305.31,368.487C305.31,376.071 299.163,382.218 291.581,382.218Z" style="fill:rgb(59,111,182);fill-rule:nonzero;"/>
        <path d="M434.023,382.218L291.581,382.218C283.999,382.218 277.851,376.071 277.851,368.488C277.851,360.905 283.999,354.758 291.581,354.758L434.022,354.758C447.507,354.758 458.478,343.787 458.478,330.303L458.478,277.874C458.478,264.389 447.507,253.419 434.022,253.419L305.312,253.419L305.312,309.555C305.312,317.138 299.164,323.285 291.582,323.285C284,323.285 277.852,317.138 277.852,309.555L277.852,239.688C277.852,232.105 284,225.958 291.582,225.958L434.023,225.958C462.651,225.958 485.94,249.247 485.94,277.874L485.94,330.303C485.938,358.93 462.649,382.218 434.023,382.218Z" style="fill:rgb(59,111,182);fill-rule:nonzero;"/>
    </g>
</svg>
