<?xml version="1.0" encoding="utf-8"?>

<!DOCTYPE svg PUBLIC "-//W3C//DTD SVG 1.1//EN" "http://www.w3.org/Graphics/SVG/1.1/DTD/svg11.dtd">
<!-- Uploaded to: SVG Repo, www.svgrepo.com, Generator: SVG Repo Mixer Tools -->
<svg height="800px" width="800px" version="1.1" id="_x32_" xmlns="http://www.w3.org/2000/svg" xmlns:xlink="http://www.w3.org/1999/xlink" 
	 viewBox="0 0 512 512"  xml:space="preserve">
<style type="text/css">
	.st0{fill:#000000;}
</style>
<g>
	<polygon class="st0" points="198.725,191.232 172.347,226.003 239.166,276.696 265.543,241.932 253.123,232.51 236.168,254.854 
		194.188,223.005 211.144,200.654 	"/>
	<path class="st0" d="M447.552,267.373v-0.152c0-30.548-7.793-59.46-21.507-84.71c-7.253-13.326-16.21-25.64-26.576-36.629
		c0.076-0.624,0.076-1.248,0.076-1.865c0-11.301-3.745-21.666-10.053-30.083l29.224-38.501L319.203,0L188.671,172.069l99.513,75.434
		l43.021-56.811c5.609,2.26,11.765,3.508,18.151,3.508c2.108,0,4.208-0.152,6.24-0.388c5.221,5.997,9.741,12.626,13.554,19.634
		c8.729,16.058,13.638,34.292,13.638,53.927c0,31.408-12.618,59.467-33.196,80.038c-20.57,20.571-48.63,33.12-80.03,33.196
		c-6.156,0-12.237-0.464-18.082-1.476c-17.998-2.885-34.52-9.977-48.63-20.343h-23.92c0.541,0.548,1.089,1.088,1.637,1.637v0.076
		c19.01,18.158,43.561,30.632,70.913,34.444c5.921,0.784,11.926,1.248,18.082,1.248c35.608,0,67.717-14.414,91.096-37.716
		c23.303-23.379,37.716-55.488,37.716-91.104c0-22.282-5.608-43.166-15.502-61.408c-3.273-5.997-7.017-11.69-11.226-17.062
		c10.442-5.145,18.783-13.797,23.456-24.474c6.544,7.952,12.314,16.445,17.222,25.562c12.55,22.991,19.643,49.407,19.643,77.306
		v0.16c0,44.81-18.235,85.41-47.542,114.71c-12.542,12.55-27.116,22.991-43.25,30.936l-10.678,5.305l38.265,32.336
		c8.653,7.329,13.638,18.082,13.638,29.46v16.21h-195.6v-16.21c0-11.378,4.984-22.131,13.714-29.536l21.043-17.846l8.644-7.329
		l-13.013-4.437c-22.595-7.717-43.014-20.182-59.848-36.316c-8.181-7.793-15.51-16.522-21.894-25.952h-18.471
		c8.181,13.79,18.158,26.263,29.612,37.253c15.274,14.574,33.273,26.492,53.067,34.909l-2.176,1.872l-7.092,5.996
		c-12.162,10.289-19.171,25.487-19.171,41.386V512h226.772v-31.796c0-15.898-7.009-31.096-19.171-41.386l-20.418-17.298
		c13.638-7.793,26.028-17.298,37.017-28.288C427.597,361.125,447.552,316.475,447.552,267.373z M383.184,151.498
		c-1.484,6.545-4.757,12.39-9.353,16.986c-3.66,3.584-8.029,6.393-12.938,8.105c-3.584,1.324-7.481,2.025-11.537,2.025
		c-8.569-0.076-16.287-3.113-22.283-8.181c-0.784-0.624-1.484-1.248-2.184-1.948c-6.233-6.317-10.053-14.886-10.053-24.468
		c0-9.588,3.82-18.158,10.053-24.474c6.317-6.233,14.886-10.13,24.468-10.13c7.252,0,13.873,2.184,19.406,5.997
		c1.796,1.172,3.508,2.572,5.068,4.133c2.26,2.26,4.133,4.757,5.685,7.557c0.16,0.236,0.312,0.548,0.396,0.784
		c2.565,4.832,4.049,10.289,4.049,16.134C383.96,146.582,383.648,149.078,383.184,151.498z M378.267,103.021
		c-8.097-5.761-18.151-9.193-28.911-9.193c-27.664,0-50.106,22.443-50.106,50.19c0,15.662,7.168,29.688,18.47,38.805l-32.572,42.861
		l-74.581-56.651L322.24,21.819l74.657,56.659L378.267,103.021z"/>
	<path class="st0" d="M195.665,345.151h46.742v-52.602H64.448v52.602h70.456H195.665z M80.034,308.134h146.788v21.43h-31.156
		h-60.761h-54.87V308.134z"/>
	<path class="st0" d="M360.193,126.712c-3.12-1.948-6.857-3.036-10.837-3.036c-11.218,0-20.335,9.041-20.335,20.342
		c0,5.998,2.572,11.378,6.698,15.038c2.967,2.725,6.628,4.521,10.677,5.061c0.084,0,0.084,0,0.084,0
		c0.929,0.16,1.948,0.236,2.877,0.236c11.301,0,20.342-9.117,20.342-20.335c0-1.636-0.152-3.196-0.548-4.756
		C367.91,133.964,364.629,129.52,360.193,126.712z M349.356,151.887c-4.361,0-7.87-3.508-7.87-7.87c0-4.368,3.509-7.876,7.87-7.953
		c4.368,0.076,7.876,3.585,7.953,7.953C357.232,148.378,353.724,151.887,349.356,151.887z"/>
</g>
</svg>