<?xml version="1.0" encoding="UTF-8" standalone="no"?>
<!DOCTYPE svg PUBLIC "-//W3C//DTD SVG 1.1//EN" "http://www.w3.org/Graphics/SVG/1.1/DTD/svg11.dtd">
<svg width="100%" height="100%" viewBox="0 0 36 36" version="1.1" xmlns="http://www.w3.org/2000/svg" xmlns:xlink="http://www.w3.org/1999/xlink" xml:space="preserve" xmlns:serif="http://www.serif.com/" style="fill-rule:evenodd;clip-rule:evenodd;stroke-linecap:round;stroke-linejoin:round;stroke-miterlimit:1.5;">
    <g transform="matrix(1,0,0,1,-0.285337,-1.08828)">
        <g transform="matrix(1,0,0,-1,-12.9483,48.9888)">
            <path d="M16.507,27.317C16.364,27.408 15.103,24.068 15.363,23.903C15.363,23.903 18.175,23.286 19.526,22.8C20.912,22.301 24.874,21.187 24.874,21.187C25.022,21.089 26.941,22.907 26.688,23.074C26.688,23.074 25.069,23.664 23.397,24.548C22.668,24.933 21.624,25.318 21.152,25.526C19.7,26.169 16.507,27.317 16.507,27.317Z" style="fill-rule:nonzero;"/>
        </g>
        <g transform="matrix(-0.906052,-0.423166,-0.423166,0.906052,38.8695,8.59397)">
            <path d="M16.211,26.326C15.501,26.369 15.216,25.978 15.269,25.706C15.435,24.86 18.175,23.286 19.526,22.8C20.912,22.301 26.489,19.575 26.489,19.575C26.637,19.476 26.961,22.313 26.486,22.959C26.486,22.959 22.896,25.125 21.379,25.797C19.927,26.439 17.185,26.268 16.211,26.326Z" style="fill-rule:nonzero;"/>
        </g>
        <g transform="matrix(0.707107,0.707107,-0.707107,0.707107,14.3994,-14.4321)">
            <path d="M16.003,26.356C15.294,26.296 15.216,25.978 15.269,25.706C15.435,24.86 18.175,23.286 19.526,22.8C20.912,22.301 26.727,19.439 26.727,19.439C26.875,19.341 27.246,21.204 26.273,22.544C26.273,22.544 21.841,25.593 20.323,26.265C18.871,26.907 17.912,26.517 16.003,26.356Z" style="fill-rule:nonzero;"/>
        </g>
        <g transform="matrix(-0.906052,-0.423166,-0.423166,0.906052,44.8382,0.862786)">
            <path d="M16.211,26.326C15.504,26.245 15.216,25.978 15.269,25.706C15.435,24.86 18.175,23.286 19.526,22.8C20.912,22.301 26.489,19.575 26.489,19.575C26.637,19.476 26.961,22.313 26.486,22.959C26.486,22.959 22.539,25.844 20.962,26.361C19.379,26.881 17.713,26.498 16.211,26.326Z" style="fill-rule:nonzero;"/>
        </g>
        <g transform="matrix(0.707107,0.707107,-0.707107,0.707107,20.368,-22.1632)">
            <path d="M16.003,26.356C15.294,26.296 15.216,25.978 15.269,25.706C15.435,24.86 18.175,23.286 19.526,22.8C20.912,22.301 26.727,19.439 26.727,19.439C26.875,19.341 26.941,22.907 26.688,23.074C26.688,23.074 21.841,25.593 20.323,26.265C18.871,26.907 17.912,26.517 16.003,26.356Z" style="fill-rule:nonzero;"/>
        </g>
    </g>
    <g transform="matrix(0.728731,0,0,0.728731,16.4373,5.15389)">
        <g transform="matrix(1,0,0,-1,-12.9483,48.9888)">
            <path d="M16.507,27.317C16.364,27.408 15.103,24.068 15.363,23.903C15.363,23.903 18.175,23.286 19.526,22.8C20.912,22.301 24.874,21.187 24.874,21.187C25.022,21.089 26.941,22.907 26.688,23.074C26.688,23.074 25.069,23.664 23.397,24.548C22.668,24.933 21.624,25.318 21.152,25.526C19.7,26.169 16.507,27.317 16.507,27.317Z" style="fill-rule:nonzero;"/>
        </g>
        <g transform="matrix(-0.906052,-0.423166,-0.423166,0.906052,38.8695,8.59397)">
            <path d="M16.211,26.326C15.501,26.369 15.216,25.978 15.269,25.706C15.435,24.86 18.175,23.286 19.526,22.8C20.912,22.301 26.489,19.575 26.489,19.575C26.637,19.476 26.961,22.313 26.486,22.959C26.486,22.959 22.896,25.125 21.379,25.797C19.927,26.439 17.185,26.268 16.211,26.326Z" style="fill-rule:nonzero;"/>
        </g>
        <g transform="matrix(0.707107,0.707107,-0.707107,0.707107,14.3994,-14.4321)">
            <path d="M16.003,26.356C15.294,26.296 15.216,25.978 15.269,25.706C15.435,24.86 18.175,23.286 19.526,22.8C20.912,22.301 26.727,19.439 26.727,19.439C26.875,19.341 27.246,21.204 26.273,22.544C26.273,22.544 21.841,25.593 20.323,26.265C18.871,26.907 17.912,26.517 16.003,26.356Z" style="fill-rule:nonzero;"/>
        </g>
        <g transform="matrix(-0.906052,-0.423166,-0.423166,0.906052,44.8382,0.862786)">
            <path d="M16.211,26.326C15.504,26.245 15.216,25.978 15.269,25.706C15.435,24.86 18.175,23.286 19.526,22.8C20.912,22.301 26.489,19.575 26.489,19.575C26.637,19.476 26.961,22.313 26.486,22.959C26.486,22.959 22.539,25.844 20.962,26.361C19.379,26.881 17.713,26.498 16.211,26.326Z" style="fill-rule:nonzero;"/>
        </g>
        <g transform="matrix(0.707107,0.707107,-0.707107,0.707107,20.368,-22.1632)">
            <path d="M16.003,26.356C15.294,26.296 15.216,25.978 15.269,25.706C15.435,24.86 18.175,23.286 19.526,22.8C20.912,22.301 26.727,19.439 26.727,19.439C26.875,19.341 26.941,22.907 26.688,23.074C26.688,23.074 21.841,25.593 20.323,26.265C18.871,26.907 17.912,26.517 16.003,26.356Z" style="fill-rule:nonzero;"/>
        </g>
    </g>
    <g transform="matrix(1,0,0,1,0.9255,0.37986)">
        <path d="M2.54,21.95C0.678,19.997 -2.161,27.371 2.158,28.158C6.477,28.945 17.719,30.557 17.048,26.674C16.378,22.792 14.988,21.306 18.386,21.991" style="fill:none;stroke:black;stroke-width:1px;"/>
    </g>
</svg>
