<?xml version="1.0" encoding="iso-8859-1"?>
<!-- Generator: Adobe Illustrator 19.0.0, SVG Export Plug-In . SVG Version: 6.00 Build 0)  -->
<svg version="1.1" id="Layer_1" xmlns="http://www.w3.org/2000/svg" xmlns:xlink="http://www.w3.org/1999/xlink" x="0px" y="0px"
	 viewBox="0 0 512.001 512.001" style="enable-background:new 0 0 512.001 512.001;" xml:space="preserve">
<g>
	<g>
		<g>
			<circle cx="441.546" cy="261.76" r="9.162"/>
			<path d="M471.357,215.465c-21.181-15.245-47.444-25.019-75.568-28.392c-9.437-36.652-33.634-62.802-70.1-75.672
				c-27.409-9.675-51.969-8.379-53.002-8.32c-3.802,0.22-7.072,2.769-8.211,6.404c-1.139,3.634,0.087,7.594,3.082,9.947
				c27.083,21.279,25.847,57.032,24.478,69.449c-25.424,2.001-49.571,4.923-71.811,8.664l-91.805-35.44
				c-2.688-1.038-5.705-0.75-8.149,0.774c-2.444,1.524-4.028,4.11-4.277,6.979l-5.202,59.818c-2.628,0.59-5.325,0.897-8.079,0.897
				c-10.435,0-20.539-4.402-27.717-12.074L15.855,155.26c-2.904-3.105-7.561-3.806-11.246-1.693
				c-3.688,2.113-5.439,6.483-4.229,10.557c9.722,32.751,20.11,78.844,20.11,109.99c0,31.155-10.388,77.251-20.11,110.002
				c-1.209,4.075,0.542,8.444,4.229,10.557c1.425,0.817,2.994,1.213,4.551,1.213c2.473,0,4.914-1,6.695-2.904l59.137-63.238
				c7.18-7.675,17.422-12.077,28.103-12.077l8.114-0.011l4.789,50.45c0.263,2.774,1.774,5.276,4.104,6.8
				c1.508,0.987,3.255,1.496,5.016,1.496c0.96,0,1.926-0.151,2.86-0.457l74.379-24.439l25.758-8.455
				c30.036,4.699,63.206,7.903,98.134,9.431c-0.959,12.426-4.411,32.898-13.78,40.105c-3.109,2.392-4.351,6.498-3.088,10.212
				c1.263,3.714,4.75,6.212,8.674,6.212c2.781,0,68.164-0.665,94.966-57.666c22.14-2.581,41.395-7.434,56.772-14.419
				c34.884-15.849,42.207-38.692,42.207-55.066C512.001,258.256,497.186,234.057,471.357,215.465z M319.591,128.68
				c28.853,10.183,47.909,29.365,56.756,57.059h-2.785v0.001c-21.469,0.003-42.557,0.639-62.957,1.856
				c1.194-14.071,0.877-41.421-15.086-64.818C302.652,123.838,310.973,125.638,319.591,128.68z M133.19,183.588l53.332,20.587
				c-21.83,4.992-40.986,10.891-56.65,17.565L133.19,183.588z M133.156,354.953l-3.373-35.521
				c5.497,1.022,11.005,2.468,16.493,4.362c13.24,4.574,28.148,8.67,44.398,12.259L133.156,354.953z M349.849,384.391
				c-4.47,1.614-8.773,2.814-12.691,3.705c5.125-12.36,6.854-26.392,7.432-34.976c9.624,0.254,19.353,0.392,29.172,0.392
				c5.923,0,11.696-0.149,17.342-0.412C381.746,367.365,367.918,377.87,349.849,384.391z M399.666,334.238
				c-26.581-30.358-15.739-79.476-15.618-80.002c1.137-4.923-1.929-9.84-6.852-10.985c-4.924-1.142-9.852,1.921-10.999,6.847
				c-0.522,2.247-10.879,48.569,11.474,85.067c-1.295,0.014-2.596,0.023-3.907,0.023c-87.944,0-168.68-10.466-221.506-28.714
				c-13.381-4.617-26.938-7.021-40.331-7.143l-8.83,0.01c-15.733,0-30.853,6.517-41.485,17.885L27.36,353.852
				c5.672-24.023,11.453-54.66,11.453-79.737c0-25.069-5.782-55.706-11.453-79.727l34.253,36.627
				c10.632,11.363,25.613,17.88,41.099,17.88c8.594,0,17.182-2.042,24.834-5.904c47.631-24.013,141.977-38.929,246.218-38.929
				c32.493,0,63.351,9.33,86.89,26.273c20.679,14.884,33.024,34.143,33.024,51.519C493.677,310.231,457.571,329.812,399.666,334.238
				z"/>
		</g>
	</g>
</g>
<g>
</g>
<g>
</g>
<g>
</g>
<g>
</g>
<g>
</g>
<g>
</g>
<g>
</g>
<g>
</g>
<g>
</g>
<g>
</g>
<g>
</g>
<g>
</g>
<g>
</g>
<g>
</g>
<g>
</g>
</svg>
